<svg data-v-423bf9ae="" xmlns="http://www.w3.org/2000/svg" viewBox="0 0 278.9200781806943 60" class="font"><!----><!----><!----><g data-v-423bf9ae="" id="f14a0d42-ae27-4546-a9d3-18094643a9f8" fill="black" transform="matrix(4.319654320875766,0,0,4.319654320875766,-7.559393105737172,-12.095032607730715)"><path d="M7.63 5.53L3.32 5.53L3.32 8.53L7.07 8.53L7.07 9.84L3.32 9.84L3.32 14L1.75 14L1.75 4.20L7.63 4.20L7.63 5.53ZM14.97 8.22L14.97 8.22Q14.29 8.22 13.82 8.53L13.82 8.53L13.82 8.53Q13.34 8.83 13.13 9.23L13.13 9.23L13.13 12.67L15.34 12.67L15.34 14L9.84 14L9.84 12.67L11.55 12.67L11.55 8.33L9.84 8.33L9.84 7L12.71 7L12.98 7.85L12.98 7.85Q13.36 7.36 13.93 7.10L13.93 7.10L13.93 7.10Q14.50 6.83 15.25 6.83L15.25 6.83L15.25 6.83Q15.92 6.83 16.45 7.10L16.45 7.10L15.99 8.44L15.99 8.44Q15.92 8.37 15.64 8.29L15.64 8.29L15.64 8.29Q15.37 8.22 14.97 8.22L14.97 8.22ZM21.10 5.46L21.10 5.46Q20.57 5.46 20.21 5.10L20.21 5.10L20.21 5.10Q19.85 4.75 19.85 4.23L19.85 4.23L19.85 4.23Q19.85 3.71 20.21 3.35L20.21 3.35L20.21 3.35Q20.57 3.00 21.10 3.00L21.10 3.00L21.10 3.00Q21.63 3.00 21.98 3.35L21.98 3.35L21.98 3.35Q22.33 3.70 22.33 4.23L22.33 4.23L22.33 4.23Q22.33 4.75 21.98 5.10L21.98 5.10L21.98 5.10Q21.63 5.46 21.10 5.46L21.10 5.46ZM21.91 12.67L23.81 12.67L23.81 14L20.34 14L20.34 8.33L18.00 8.33L18.00 7L21.91 7L21.91 12.67ZM30.73 2.80L32.30 2.80L32.30 14L31.07 14L30.80 13.20L30.80 13.20Q30.06 14.15 28.87 14.15L28.87 14.15L28.87 14.15Q27.45 14.15 26.68 13.25L26.68 13.25L26.68 13.25Q25.90 12.35 25.90 10.49L25.90 10.49L25.90 10.49Q25.90 8.61 26.61 7.73L26.61 7.73L26.61 7.73Q27.33 6.85 28.73 6.85L28.73 6.85L28.73 6.85Q29.34 6.85 29.86 7.08L29.86 7.08L29.86 7.08Q30.37 7.31 30.73 7.71L30.73 7.71L30.73 2.80ZM29.18 12.81L29.18 12.81Q29.75 12.81 30.16 12.47L30.16 12.47L30.16 12.47Q30.56 12.14 30.73 11.65L30.73 11.65L30.73 9.42L30.73 9.42Q30.51 8.92 30.08 8.55L30.08 8.55L30.08 8.55Q29.65 8.19 29.04 8.19L29.04 8.19L29.04 8.19Q28.15 8.19 27.81 8.71L27.81 8.71L27.81 8.71Q27.47 9.24 27.47 10.49L27.47 10.49L27.47 10.49Q27.47 11.70 27.87 12.26L27.87 12.26L27.87 12.26Q28.28 12.81 29.18 12.81L29.18 12.81ZM41.62 13.31L40.61 14.28L39.73 13.41L39.73 13.41Q38.81 14.15 37.51 14.15L37.51 14.15L37.51 14.15Q36.01 14.15 35.29 13.59L35.29 13.59L35.29 13.59Q34.58 13.03 34.58 11.86L34.58 11.86L34.58 11.86Q34.58 10.68 35.36 10.13L35.36 10.13L35.36 10.13Q36.13 9.58 37.79 9.58L37.79 9.58L39.21 9.58L39.21 9.21L39.21 9.21Q39.21 8.65 38.88 8.41L38.88 8.41L38.88 8.41Q38.54 8.16 37.79 8.16L37.79 8.16L37.79 8.16Q37.11 8.16 36.69 8.31L36.69 8.31L36.69 8.31Q36.26 8.46 35.99 8.76L35.99 8.76L34.99 7.78L34.99 7.78Q35.42 7.35 36.18 7.09L36.18 7.09L36.18 7.09Q36.93 6.83 37.90 6.83L37.90 6.83L37.90 6.83Q39.24 6.83 40.01 7.36L40.01 7.36L40.01 7.36Q40.78 7.88 40.78 8.85L40.78 8.85L40.78 12.47L41.62 13.31ZM36.13 11.86L36.13 11.86Q36.13 12.39 36.48 12.61L36.48 12.61L36.48 12.61Q36.83 12.84 37.74 12.84L37.74 12.84L37.74 12.84Q38.18 12.84 38.57 12.68L38.57 12.68L38.57 12.68Q38.96 12.53 39.21 12.29L39.21 12.29L39.21 10.82L38.26 10.82L38.26 10.82Q37.34 10.82 36.89 10.92L36.89 10.92L36.89 10.92Q36.44 11.02 36.29 11.23L36.29 11.23L36.29 11.23Q36.13 11.44 36.13 11.86L36.13 11.86ZM47.96 7L49.74 7L47.33 14L47.33 14Q46.84 15.30 46.13 16.00L46.13 16.00L46.13 16.00Q45.42 16.69 44.39 16.69L44.39 16.69L44.39 16.69Q44.09 16.69 43.79 16.63L43.79 16.63L43.79 16.63Q43.50 16.56 43.39 16.52L43.39 16.52L43.88 15.27L43.88 15.27Q43.89 15.27 44.02 15.31L44.02 15.31L44.02 15.31Q44.14 15.34 44.27 15.34L44.27 15.34L44.27 15.34Q44.80 15.34 45.14 15.04L45.14 15.04L45.14 15.04Q45.47 14.74 45.82 13.94L45.82 13.94L43.29 7L45.07 7L46.52 11.94L47.96 7ZM54.70 5.46L54.70 5.46Q54.17 5.46 53.81 5.10L53.81 5.10L53.81 5.10Q53.45 4.75 53.45 4.23L53.45 4.23L53.45 4.23Q53.45 3.71 53.81 3.35L53.81 3.35L53.81 3.35Q54.17 3.00 54.70 3.00L54.70 3.00L54.70 3.00Q55.23 3.00 55.58 3.35L55.58 3.35L55.58 3.35Q55.93 3.70 55.93 4.23L55.93 4.23L55.93 4.23Q55.93 4.75 55.58 5.10L55.58 5.10L55.58 5.10Q55.23 5.46 54.70 5.46L54.70 5.46ZM55.51 12.67L57.41 12.67L57.41 14L53.94 14L53.94 8.33L51.60 8.33L51.60 7L55.51 7L55.51 12.67ZM63.04 14.15L63.04 14.15Q61.63 14.15 60.69 13.27L60.69 13.27L60.69 13.27Q59.75 12.38 59.75 10.49L59.75 10.49L59.75 10.49Q59.75 9.21 60.21 8.39L60.21 8.39L60.21 8.39Q60.66 7.57 61.40 7.20L61.40 7.20L61.40 7.20Q62.15 6.83 63.04 6.83L63.04 6.83L63.04 6.83Q63.94 6.83 64.67 7.20L64.67 7.20L64.67 7.20Q65.41 7.57 65.86 8.39L65.86 8.39L65.86 8.39Q66.32 9.21 66.32 10.49L66.32 10.49L66.32 10.49Q66.32 11.77 65.86 12.59L65.86 12.59L65.86 12.59Q65.41 13.41 64.67 13.78L64.67 13.78L64.67 13.78Q63.94 14.15 63.04 14.15L63.04 14.15ZM63.04 12.81L63.04 12.81Q63.70 12.81 64.18 12.27L64.18 12.27L64.18 12.27Q64.67 11.73 64.67 10.49L64.67 10.49L64.67 10.49Q64.67 9.25 64.18 8.71L64.18 8.71L64.18 8.71Q63.70 8.18 63.04 8.18L63.04 8.18L63.04 8.18Q62.37 8.18 61.89 8.71L61.89 8.71L61.89 8.71Q61.40 9.24 61.40 10.49L61.40 10.49L61.40 10.49Q61.40 11.73 61.89 12.27L61.89 12.27L61.89 12.27Q62.37 12.81 63.04 12.81L63.04 12.81Z"></path></g><!----><!----></svg>